<svg width="72" height="72" viewBox="0 0 72 72" fill="none" xmlns="http://www.w3.org/2000/svg">
<path d="M0 0H72V72H0V0Z" fill="black"/>
<path d="M6.77959 56.9667H34.1193V61.3898H6.77959V56.9667Z" fill="white"/>
<path d="M6.46485 18.0352L8.58221 16.0879C9.15447 16.7695 9.69812 17.1589 10.4564 17.1589C11.2718 17.1589 11.8012 16.6165 11.8012 15.5455V8.22927H15.0774V15.5594C15.0774 17.0059 14.7054 18.0352 13.9042 18.8141C13.1174 19.5791 12.0015 19.9825 10.6423 19.9825C8.56791 19.9825 7.32324 19.1479 6.46485 18.0352Z" fill="white"/>
<path d="M15.8356 8.22927H25.3923V10.9415H19.0975V12.708H24.8058V15.2255H19.0975V17.0615H25.4782V19.7877H15.8356V8.22927Z" fill="white"/>
<path d="M29.6986 11.0389H26.1506V8.22927H36.5514V11.0389H32.9891V19.7877H29.6986V11.0389Z" fill="white"/>
<path d="M6.77959 22.4861H12.8742C14.362 22.4861 15.4207 22.8477 16.1074 23.5154C16.5795 23.9883 16.88 24.6003 16.88 25.3931V25.4209C16.88 26.7562 16.0931 27.549 15.0487 27.9941C16.4937 28.4531 17.4093 29.2459 17.4093 30.8176V30.8455C17.4093 32.8205 15.7498 34.0306 12.9028 34.0306H6.77959V22.4861ZM13.6324 26.0468C13.6324 25.407 13.1031 25.0593 12.1445 25.0593H9.98425V27.09H12.0587C13.0601 27.09 13.6324 26.7562 13.6324 26.0885V26.0468ZM12.4879 29.3433H9.96994V31.4714H12.5165C13.5323 31.4714 14.0902 31.0958 14.0902 30.4143V30.3865C14.1045 29.7466 13.6038 29.3433 12.4879 29.3433Z" fill="white"/>
<path d="M17.8957 22.4861H23.5182C25.3351 22.4861 26.5941 22.9451 27.3952 23.724C28.0963 24.4055 28.4539 25.2818 28.4539 26.4085V26.4363C28.4539 28.2166 27.4811 29.385 26.0075 29.997L28.8402 34.0167H25.049L22.6598 30.5116H21.2005V34.0167H17.91V22.4861H17.8957ZM23.3751 28.0358C24.4767 28.0358 25.1348 27.5073 25.1348 26.6727V26.6449C25.1348 25.7269 24.4338 25.254 23.3465 25.254H21.1719V28.0497H23.3751V28.0358Z" fill="white"/>
<path d="M32.2881 22.4026H35.4641L40.5286 34.0306H36.9949L36.1365 31.9582H31.5441L30.7 34.0306H27.2522L32.2881 22.4026ZM35.178 29.4685L33.8475 26.1998L32.5027 29.4685H35.178Z" fill="white"/>
<path d="M40.9149 22.4861H44.2054V34.0445H40.9149V22.4861Z" fill="white"/>
<path d="M45.0208 22.4861H48.0824L52.9753 28.5922V22.4861H56.2371V34.0445H53.3615L48.2684 27.702V34.0445H45.0208V22.4861Z" fill="white"/>
<path d="M56.4374 32.3198L58.2687 30.1917C59.4561 31.0958 60.7437 31.5826 62.1171 31.5826C63.0184 31.5826 63.4905 31.2905 63.4905 30.7898V30.762C63.4905 30.2613 63.1043 30.0248 61.4733 29.6354C58.9411 29.079 56.9954 28.3835 56.9954 26.019V25.9912C56.9954 23.8492 58.7408 22.2914 61.5878 22.2914C63.605 22.2914 65.193 22.8199 66.4806 23.8214L64.8353 26.0746C63.7481 25.3096 62.5606 24.9341 61.5162 24.9341C60.7151 24.9341 60.3288 25.254 60.3288 25.6713V25.6991C60.3288 26.2276 60.7437 26.4641 62.4032 26.8257C65.1215 27.396 66.824 28.2584 66.824 30.4282V30.456C66.824 32.8205 64.9069 34.2254 62.017 34.2254C59.8996 34.2393 57.9253 33.5995 56.4374 32.3198Z" fill="white"/>
</svg>
